# xmcd CD database file
#
# Track frame offsets:
#	150
#	21130
#	43154
#	61856
#	86352
#	102826
#	120086
#	140656
#	163411
#	182583
#	200728
#	222562
#	245022
#	266004
#	285577
#
# Disc length: 4146 seconds
#
# Revision: 0
# Processed by: cddbd v1.5.1PL2 Copyright (c) Steve Scherf et al.
# Submitted via: CDex 1.51
#
DISCID=de10300f
DTITLE=Various Artist - スタまにシリーズ　セイバーマリオネットJ
DYEAR=2005
DGENRE=Pop
TTITLE0=あなたをずっとみつめてる
TTITLE1=Je T'aimerai
TTITLE2=Successful Mission
TTITLE3=I'll Be There
TTITLE4=咲かせるぜ！度胸花
TTITLE5=影になれ
TTITLE6=流れ星でいい
TTITLE7=十六夜
TTITLE8=夢へのRunner
TTITLE9=青春は終わらない
TTITLE10=Hesitation
TTITLE11=I'll Be There (Ballade Version)〈OVAサイズ〉
TTITLE12=守ってあげる
TTITLE13=Heart Break Down
TTITLE14=風の詩を聞きながら
EXTD=YEAR: 2005
EXTT0=
EXTT1=
EXTT2=
EXTT3=
EXTT4=
EXTT5=
EXTT6=
EXTT7=
EXTT8=
EXTT9=
EXTT10=
EXTT11=
EXTT12=
EXTT13=
EXTT14=
PLAYORDER=
